<?xml version="1.0" encoding="UTF-8" standalone="no"?>
<svg
   width="94.892"
   height="99.422"
   viewBox="0 0 94.892 99.422"
   version="1.1"
   id="svg839"
   xmlns="http://www.w3.org/2000/svg"
   xmlns:svg="http://www.w3.org/2000/svg">
  <defs
     id="defs843" />
  <g
     id="Logo"
     transform="translate(-5.983 0.495)">
    <g
       id="Layer_1"
       data-name="Layer 1"
       transform="translate(0 0.38)"
       style="stroke:#013650;stroke-opacity:1">
      <path
         id="Path_982"
         data-name="Path 982"
         d="M3.95,95.117c-.494-19.127.217-35.19,1.106-47.2C6.6,27.026,8.672,18.219,15.607,11.06a28.21,28.21,0,0,1,17.781-9c11.321-.815,19.618,6.867,22.5,9.544,5.216,4.811,9.7,11.639,15.015,34.375a420.07,420.07,0,0,1,6.658,49.138"
         transform="translate(3.696 1.2)"
         fill="none"
         stroke="#faf9fa"
         stroke-linecap="round"
         stroke-miterlimit="10"
         stroke-width="3"
         style="stroke:#013650;stroke-opacity:1" />
      <path
         id="Path_983"
         data-name="Path 983"
         d="M5.957,92.677c-.435-17.376.28-35.644,1.07-46.512,1.383-18.934,3.161-26.981,9.4-33.332A24.789,24.789,0,0,1,32.237,4.668C42.312,3.918,49.7,10.9,52.27,13.267,56.913,17.626,60.9,23.72,65.645,44.39c2.213,9.625,4.909,32.469,6.194,48.287"
         transform="translate(5.617 4.185)"
         fill="none"
         stroke="#faf9fa"
         stroke-linecap="round"
         stroke-miterlimit="10"
         stroke-width="2.4"
         style="stroke:#013650;stroke-opacity:1" />
      <path
         id="Path_984"
         data-name="Path 984"
         d="M7.836,91.668c-.375-15.595.372-36.7,1.063-46.474,1.205-17.029,2.825-24.241,8.258-30a21.915,21.915,0,0,1,13.83-7.353c8.871-.646,15.351,5.616,17.623,7.8,4.07,3.939,7.567,9.413,11.736,28,1.976,8.706,5.174,33.788,6.32,48.029"
         transform="translate(7.597 5.267)"
         fill="none"
         stroke="#faf9fa"
         stroke-linecap="round"
         stroke-miterlimit="10"
         stroke-width="2.25"
         style="stroke:#013650;stroke-opacity:1" />
      <path
         id="Path_985"
         data-name="Path 985"
         d="M10.476,90.067c-.336-13.983-.612-37.975,0-46.737,1.043-13.891,2.489-21.535,7.29-26.735a19.2,19.2,0,0,1,12.308-6.572c7.9-.594,13.573,5.016,15.568,6.981,3.6,3.46,6.7,8.373,10.293,25.037,1.719,7.779,5.018,35.292,6.025,48.026"
         transform="translate(8.811 7.405)"
         fill="none"
         stroke="#faf9fa"
         stroke-linecap="round"
         stroke-miterlimit="10"
         stroke-width="2"
         style="stroke:#013650;stroke-opacity:1" />
      <circle
         id="Ellipse_174"
         data-name="Ellipse 174"
         cx="2.588"
         cy="2.588"
         r="2.588"
         transform="translate(90.616 4.208)"
         fill="none"
         stroke="#faf9fa"
         stroke-linecap="round"
         stroke-miterlimit="10"
         stroke-width="1"
         style="stroke:#013650;stroke-opacity:1" />
      <circle
         id="Ellipse_175"
         data-name="Ellipse 175"
         cx="4.267"
         cy="4.267"
         r="4.267"
         transform="translate(88.936 2.529)"
         fill="none"
         stroke="#faf9fa"
         stroke-linecap="round"
         stroke-miterlimit="10"
         stroke-width="1.25"
         style="stroke:#013650;stroke-opacity:1" />
      <circle
         id="Ellipse_176"
         data-name="Ellipse 176"
         cx="6.796"
         cy="6.796"
         r="6.796"
         transform="translate(86.407)"
         fill="none"
         stroke="#faf9fa"
         stroke-linecap="round"
         stroke-miterlimit="10"
         stroke-width="1.75"
         style="stroke:#013650;stroke-opacity:1" />
      <circle
         id="Ellipse_177"
         data-name="Ellipse 177"
         cx="2.114"
         cy="2.114"
         r="2.114"
         transform="translate(39.926 58.362)"
         fill="none"
         stroke="#faf9fa"
         stroke-linecap="round"
         stroke-miterlimit="10"
         stroke-width="0.75"
         style="stroke:#013650;stroke-opacity:1" />
      <circle
         id="Ellipse_178"
         data-name="Ellipse 178"
         cx="3.477"
         cy="3.477"
         r="3.477"
         transform="translate(38.572 56.997)"
         fill="none"
         stroke="#faf9fa"
         stroke-linecap="round"
         stroke-miterlimit="10"
         stroke-width="1"
         style="stroke:#013650;stroke-opacity:1" />
      <circle
         id="Ellipse_179"
         data-name="Ellipse 179"
         cx="5.532"
         cy="5.532"
         r="5.532"
         transform="translate(36.532 54.938)"
         fill="none"
         stroke="#faf9fa"
         stroke-linecap="round"
         stroke-miterlimit="10"
         stroke-width="1.75"
         style="stroke:#013650;stroke-opacity:1" />
      <line
         id="Line_118"
         data-name="Line 118"
         y2="79.304"
         transform="translate(89.904 16.953)"
         fill="none"
         stroke="#faf9fa"
         stroke-linecap="round"
         stroke-miterlimit="10"
         stroke-width="2.25"
         style="stroke:#013650;stroke-opacity:1" />
      <line
         id="Line_119"
         data-name="Line 119"
         y2="79.304"
         transform="translate(93.204 16.953)"
         fill="none"
         stroke="#faf9fa"
         stroke-linecap="round"
         stroke-miterlimit="10"
         stroke-width="2.5"
         style="stroke:#013650;stroke-opacity:1" />
      <line
         id="Line_120"
         data-name="Line 120"
         y2="79.304"
         transform="translate(96.661 17.092)"
         fill="none"
         stroke="#faf9fa"
         stroke-linecap="round"
         stroke-miterlimit="10"
         stroke-width="2.25"
         style="stroke:#013650;stroke-opacity:1" />
    </g>
  </g>
</svg>
