<?xml version="1.0" encoding="utf-8"?>
<!-- Generator: Adobe Illustrator 24.3.0, SVG Export Plug-In . SVG Version: 6.00 Build 0)  -->
<svg version="1.1" id="Layer_1" xmlns="http://www.w3.org/2000/svg" xmlns:xlink="http://www.w3.org/1999/xlink" x="0px" y="0px"
	 viewBox="0 0 49.7 50.5" style="enable-background:new 0 0 49.7 50.5;" xml:space="preserve">
<style type="text/css">
	.st0{fill:none;stroke:#877179;stroke-linecap:round;stroke-miterlimit:10;}
	.st1{fill:none;stroke:#877179;stroke-width:0.89;stroke-linecap:round;stroke-miterlimit:10;}
	.st2{fill:none;stroke:#877179;stroke-width:0.78;stroke-linecap:round;stroke-miterlimit:10;}
	.st3{fill:none;stroke:#877179;stroke-width:0.69;stroke-linecap:round;stroke-miterlimit:10;}
	.st4{fill:none;stroke:#877179;stroke-width:0.5;stroke-linecap:round;stroke-miterlimit:10;}
	.st5{fill:none;stroke:#877179;stroke-width:0.75;stroke-linecap:round;stroke-miterlimit:10;}
	.st6{fill:none;stroke:#877179;stroke-width:0.41;stroke-linecap:round;stroke-miterlimit:10;}
	.st7{fill:none;stroke:#877179;stroke-width:0.61;stroke-linecap:round;stroke-miterlimit:10;}
</style>
<g id="Layer_2_1_">
	<g id="Layer_1-2">
		<path class="st0" d="M0.6,50c-0.2-9.9,0.1-18.1,0.6-24.3C1.9,14.9,3,10.3,6.5,6.6C8.8,4,12,2.4,15.5,2c5.7-0.4,9.9,3.5,11.4,4.9
			c2.6,2.5,4.9,6,7.6,17.7c1.6,8.4,2.7,16.8,3.4,25.4"/>
		<path class="st1" d="M2.5,50c-0.2-8.8,0.2-18.8,0.6-24.3c0.7-9.6,1.6-13.6,4.8-16.9c2.1-2.3,4.9-3.8,8-4.1C21,4.3,24.7,7.8,26,9
			c2.4,2.2,4.4,5.3,6.8,15.8c1.1,4.9,2.4,17.2,3,25.2"/>
		<path class="st2" d="M4.6,50c-0.2-7.7,0.2-18.9,0.5-23.7c0.6-8.4,1.4-12,4.2-14.8c1.8-2,4.3-3.3,7-3.6c4.5-0.3,7.8,2.8,8.9,3.9
			c2.1,1.9,3.8,4.6,5.9,13.8c1,4.3,2.7,17.4,3.3,24.5"/>
		<path class="st3" d="M6.2,50C6,43.2,6.3,30.6,6.6,26.3c0.5-7.5,1.3-10.6,3.7-13.2c1.6-1.8,3.8-2.9,6.2-3.2c4-0.3,6.9,2.4,7.9,3.4
			c1.8,1.7,3.4,4.1,5.2,12.3c0.9,3.8,2.8,18.1,3.3,24.3"/>
		<circle class="st4" cx="45.9" cy="3.8" r="1.3"/>
		<circle class="st4" cx="45.9" cy="3.8" r="2.2"/>
		<circle class="st5" cx="45.9" cy="3.8" r="3.4"/>
		<circle class="st6" cx="18.8" cy="31.5" r="1.1"/>
		<circle class="st6" cx="18.8" cy="31.5" r="1.8"/>
		<circle class="st7" cx="18.8" cy="31.5" r="2.8"/>
		<line class="st5" x1="44.2" y1="9.8" x2="44.2" y2="50"/>
		<line class="st0" x1="45.9" y1="9.8" x2="45.9" y2="50"/>
		<line class="st5" x1="47.6" y1="9.9" x2="47.6" y2="50"/>
	</g>
</g>
</svg>
