<?xml version="1.0" encoding="UTF-8" standalone="no"?>
<!-- Generator: Adobe Illustrator 24.3.0, SVG Export Plug-In . SVG Version: 6.00 Build 0)  -->

<svg
   version="1.1"
   id="Layer_1"
   x="0px"
   y="0px"
   viewBox="0 0 239.9 118.6"
   style="enable-background:new 0 0 239.9 118.6;"
   xml:space="preserve"
   sodipodi:docname="logo-dark-1.svg"
   inkscape:version="1.1 (c4e8f9e, 2021-05-24)"
   xmlns:inkscape="http://www.inkscape.org/namespaces/inkscape"
   xmlns:sodipodi="http://sodipodi.sourceforge.net/DTD/sodipodi-0.dtd"
   xmlns="http://www.w3.org/2000/svg"
   xmlns:svg="http://www.w3.org/2000/svg"><defs
   id="defs855" /><sodipodi:namedview
   id="namedview853"
   pagecolor="#505050"
   bordercolor="#eeeeee"
   borderopacity="1"
   inkscape:pageshadow="0"
   inkscape:pageopacity="0"
   inkscape:pagecheckerboard="0"
   showgrid="false"
   inkscape:zoom="4.7386172"
   inkscape:cx="62.148932"
   inkscape:cy="84.201779"
   inkscape:window-width="1312"
   inkscape:window-height="784"
   inkscape:window-x="0"
   inkscape:window-y="25"
   inkscape:window-maximized="0"
   inkscape:current-layer="Layer_1-2" />
<style
   type="text/css"
   id="style824">
	.st0{fill:url(#SVGID_1_);}
	.st1{fill:#646574;}
	.st2{fill:url(#SVGID_2_);}
</style>
<g
   id="Layer_2_1_">
	<g
   id="Layer_1-2">
		
			<linearGradient
   id="SVGID_1_"
   gradientUnits="userSpaceOnUse"
   x1="55.27"
   y1="-652.6102"
   x2="56.41"
   y2="-652.6102"
   gradientTransform="matrix(1 0 0 -1 0 -606.1102)">
			<stop
   offset="0"
   style="stop-color:#483756"
   id="stop826" />
			<stop
   offset="0.19"
   style="stop-color:#483C56"
   id="stop828" />
			<stop
   offset="0.52"
   style="stop-color:#3B7356"
   id="stop830" />
			<stop
   offset="1"
   style="stop-color:#2A3663"
   id="stop832" />
		</linearGradient>
		
		<path
   class="st1"
   d="M223.2,4.6v109.3c0,2.1-1.7,3.8-3.8,3.8h-20.7c-2.1,0-3.8-1.7-3.8-3.8V74.8c0-19.7,0.4-42.1,0.9-55.4h-0.9    c-6,24-14.8,60-26.2,95.7c-0.5,1.6-2,2.7-3.6,2.7h-16.6c-1.7,0-3.2-1.1-3.7-2.8c-7.3-25.9-16.2-57.8-22.3-81.2    c-1.4-5.4-2.6-10.4-3.6-14.7H118c1.1,13.8,1.6,37.5,1.6,57.6v37.4c0,2.1-1.7,3.8-3.8,3.8H96.9c-2.1,0-3.8-1.7-3.8-3.8V71.6    c0-2.1-1.7-3.8-3.7-3.8l-30.2-0.6c-2.1,0-3.9,1.7-3.9,3.8v21.6c0,0.3,0,0.5-0.1,0.8c-2.5,12.6-8.9,20.3-21.4,23.5    c-5.2,1.2-10.5,1.8-15.8,1.7c-3.7,0-10-0.2-14.7-0.9c-1.9-0.3-3.3-1.9-3.3-3.8V100c0-2.2,1.9-4,4.1-3.8c2.9,0.2,5.8,0.3,8.7,0.3    c7.4,0,11.1-2.7,12.7-6.6c0.2-0.4,0.3-0.9,0.3-1.4V3.8c0-2.1,1.7-3.8,3.8-3.8h21.9c2.1,0,3.8,1.7,3.8,3.8v37.5    c0,2.1,1.7,3.8,3.7,3.8l30.2,0.6c2.1,0,3.9-1.7,3.9-3.8V4.6c0-2.1,1.7-3.8,3.8-3.8h36.9c1.7,0,3.2,1.1,3.7,2.7    c8.9,29.2,16.1,64.5,19.8,81.8h0.2c3.1-15.5,13-53,22.8-81.9c0.5-1.5,2-2.6,3.6-2.6h35.6C221.5,0.8,223.2,2.5,223.2,4.6z"
   id="path837"
   style="fill:#3a4a69;fill-opacity:1" />
		
			<linearGradient
   id="SVGID_2_"
   gradientUnits="userSpaceOnUse"
   x1="92.8785"
   y1="-665.4102"
   x2="93.1086"
   y2="-665.4102"
   gradientTransform="matrix(1 0 0 -1 0 -606.1102)">
			<stop
   offset="0"
   style="stop-color:#483756"
   id="stop839" />
			<stop
   offset="0.19"
   style="stop-color:#483C56"
   id="stop841" />
			<stop
   offset="0.52"
   style="stop-color:#3B7356"
   id="stop843" />
			<stop
   offset="1"
   style="stop-color:#2A3663"
   id="stop845" />
		</linearGradient>
		
	</g>
</g>
</svg>
